<svg xmlns="http://www.w3.org/2000/svg" width="256" height="256" viewBox="0 0 256 256" fill="none">
  <path d="M24 72c0-17.673 14.327-32 32-32h44.118c8.487 0 16.626 3.371 22.627 9.373L142.373 69H200c17.673 0 32 14.327 32 32v91c0 17.673-14.327 32-32 32H56c-17.673 0-32-14.327-32-32V72Z" fill="#F7C948"/>
  <path d="M24 101c0-17.673 14.327-32 32-32h144c17.673 0 32 14.327 32 32v91c0 17.673-14.327 32-32 32H56c-17.673 0-32-14.327-32-32v-91Z" fill="#3B82F6"/>
  <path d="M46 111c0-8.837 7.163-16 16-16h132c8.837 0 16 7.163 16 16v75c0 8.837-7.163 16-16 16H62c-8.837 0-16-7.163-16-16v-75Z" fill="#EFF6FF" fill-opacity=".95"/>
  <path d="M72 130h72M72 154h112M72 178h86" stroke="#1D4ED8" stroke-width="12" stroke-linecap="round"/>
</svg>
